<svg xmlns="http://www.w3.org/2000/svg" width="250" height="200" viewBox="0 0 250 200" style="font-family:sans-serif">
  <rect width="250" height="200" fill="#f9fafb"/>
  <line x1="40" y1="170" x2="250" y2="170" stroke="#e5e7eb" stroke-width="1"/>
  <line x1="40" y1="170" x2="40" y2="20" stroke="#e5e7eb" stroke-width="1"/>
  <line x1="40" y1="140" x2="250" y2="140" stroke="#e5e7eb" stroke-width="1"/>
  <line x1="70" y1="170" x2="70" y2="20" stroke="#e5e7eb" stroke-width="1"/>
  <line x1="40" y1="110" x2="250" y2="110" stroke="#e5e7eb" stroke-width="1"/>
  <line x1="100" y1="170" x2="100" y2="20" stroke="#e5e7eb" stroke-width="1"/>
  <line x1="40" y1="80" x2="250" y2="80" stroke="#e5e7eb" stroke-width="1"/>
  <line x1="130" y1="170" x2="130" y2="20" stroke="#e5e7eb" stroke-width="1"/>
  <line x1="40" y1="50" x2="250" y2="50" stroke="#e5e7eb" stroke-width="1"/>
  <line x1="160" y1="170" x2="160" y2="20" stroke="#e5e7eb" stroke-width="1"/>
  <line x1="40" y1="20" x2="250" y2="20" stroke="#e5e7eb" stroke-width="1"/>
  <line x1="190" y1="170" x2="190" y2="20" stroke="#e5e7eb" stroke-width="1"/>
  <line x1="40" y1="-10" x2="250" y2="-10" stroke="#e5e7eb" stroke-width="1"/>
  <line x1="220" y1="170" x2="220" y2="20" stroke="#e5e7eb" stroke-width="1"/>
  <line x1="40" y1="-40" x2="250" y2="-40" stroke="#e5e7eb" stroke-width="1"/>
  <line x1="250" y1="170" x2="250" y2="20" stroke="#e5e7eb" stroke-width="1"/>
  <line x1="40" y1="170" x2="250" y2="170" stroke="#9ca3af" stroke-width="1.5"/>
  <line x1="40" y1="170" x2="40" y2="20" stroke="#9ca3af" stroke-width="1.5"/>
  <polygon points="40,170 220,170 100,50" fill="#dbeafe" stroke="#2563eb" stroke-width="2"/>
  <text x="30" y="184" text-anchor="end" dy="0" font-size="13" fill="#374151">A(0,0)</text>
  <text x="225" y="184" text-anchor="start" dy="0" font-size="13" fill="#374151">B(6,0)</text>
  <text x="100" y="42" text-anchor="middle" dy="0" font-size="13" fill="#374151">C(2,4)</text>
</svg>
